<?xml version="1.0" encoding="UTF-8" standalone="no"?>
<!-- Generator: Adobe Illustrator 17.0.1, SVG Export Plug-In . SVG Version: 6.00 Build 0)  -->

<svg
   version="1.1"
   x="0px"
   y="0px"
   width="86px"
   height="86px"
   viewBox="0 0 86 86"
   enable-background="new 0 0 86 86"
   xml:space="preserve"
   id="svg6"
   sodipodi:docname="mensamax.svg"
   inkscape:version="1.4.2 (f4327f4, 2025-05-13)"
   xmlns:inkscape="http://www.inkscape.org/namespaces/inkscape"
   xmlns:sodipodi="http://sodipodi.sourceforge.net/DTD/sodipodi-0.dtd"
   xmlns="http://www.w3.org/2000/svg"
   xmlns:svg="http://www.w3.org/2000/svg"><defs
   id="defs6" /><sodipodi:namedview
   id="namedview6"
   pagecolor="#ffffff"
   bordercolor="#000000"
   borderopacity="0.25"
   inkscape:showpageshadow="2"
   inkscape:pageopacity="0.0"
   inkscape:pagecheckerboard="0"
   inkscape:deskcolor="#d1d1d1"
   showgrid="false"
   inkscape:zoom="2.5959302"
   inkscape:cx="209.94401"
   inkscape:cy="65.679731"
   inkscape:window-width="1920"
   inkscape:window-height="1137"
   inkscape:window-x="-8"
   inkscape:window-y="-8"
   inkscape:window-maximized="1"
   inkscape:current-layer="Layer_1" />
<g
   id="Layer_2"
   display="none">
</g>
<g
   id="Layer_1">
	
		<linearGradient
   id="SVGID_1_"
   gradientUnits="userSpaceOnUse"
   x1="984.9211"
   y1="339.299"
   x2="1071.6023"
   y2="252.4663"
   gradientTransform="matrix(0 0.9756 -0.9739 0 331.1601 -960.1721)">
		<stop
   offset="0.0054"
   style="stop-color:#65DEEB"
   id="stop1" />
		<stop
   offset="1"
   style="stop-color:#00A6D9"
   id="stop2" />
	</linearGradient>
	<path
   fill="url(#SVGID_1_)"
   d="M85.7,84.277V43C85.7,19.417,66.582,0.3,43,0.3H1.723C0.937,0.3,0.3,0.937,0.3,1.723V43   c0,23.583,19.118,42.7,42.7,42.7h41.277C85.063,85.7,85.7,85.063,85.7,84.277z"
   id="path2" />
	<g
   id="g3">
		<path
   opacity="0.3"
   fill="#F9F8D9"
   d="M47.355,74.551h25.621c1.104,0,1.998-0.891,1.998-1.991V44.724    c0.031-0.579,0.05-1.162,0.05-1.75c0-17.604-14.327-31.876-32-31.876c-0.344,0-0.685,0.015-1.027,0.026    c-0.294-0.17-0.632-0.275-0.997-0.275H13.023c-1.104,0-1.998,0.891-1.998,1.991V40.71c0,0.155,0.022,0.303,0.055,0.448    c-0.034,0.602-0.055,1.207-0.055,1.817c0,17.604,14.327,31.876,32,31.876C44.495,74.85,45.938,74.743,47.355,74.551z"
   id="path3" />
	</g>
	<g
   id="g6"
   style="display:inline">
		
			<path
   fill="#f7ffff"
   id="Pfad_1177"
   d="M 25.979973,59.372085 V 26.627914 h 4.72746 L 43.012018,47.305748 55.291877,26.627914 h 4.72815 V 59.372085 H 55.368116 V 34.591347 L 44.945449,52.172074 H 41.057296 L 30.63463,34.591347 v 24.780738 z"
   style="display:inline;stroke-width:0.0667169"
   inkscape:label="M">
                            </path>
		
		
			
		
	</g>
</g>
</svg>
